<?xml version="1.0" encoding="UTF-8" standalone="no"?>
<!-- Created with Inkscape (http://www.inkscape.org/) -->

<svg
   width="412"
   height="412"
   viewBox="0 0 412 412"
   version="1.1"
   id="SVGRoot"
   sodipodi:docname="logo.svg"
   inkscape:version="1.1 (c68e22c387, 2021-05-23)"
   inkscape:export-filename="C:\Users\galdin\Desktop\logo.png"
   inkscape:export-xdpi="96"
   inkscape:export-ydpi="96"
   xmlns:inkscape="http://www.inkscape.org/namespaces/inkscape"
   xmlns:sodipodi="http://sodipodi.sourceforge.net/DTD/sodipodi-0.dtd"
   xmlns="http://www.w3.org/2000/svg"
   xmlns:svg="http://www.w3.org/2000/svg"
   xmlns:rdf="http://www.w3.org/1999/02/22-rdf-syntax-ns#"
   xmlns:cc="http://creativecommons.org/ns#"
   xmlns:dc="http://purl.org/dc/elements/1.1/">
  <title
     id="title19160">typist-app-logo</title>
  <sodipodi:namedview
     id="namedview14"
     pagecolor="#505050"
     bordercolor="#eeeeee"
     borderopacity="1"
     inkscape:pageshadow="0"
     inkscape:pageopacity="0"
     inkscape:pagecheckerboard="0"
     inkscape:document-units="px"
     showgrid="false"
     inkscape:zoom="1"
     inkscape:cx="180.5"
     inkscape:cy="157.5"
     inkscape:window-width="1920"
     inkscape:window-height="1027"
     inkscape:window-x="-8"
     inkscape:window-y="-8"
     inkscape:window-maximized="1"
     inkscape:current-layer="layer1"
     width="412px" />
  <defs
     id="defs9" />
  <g
     inkscape:label="Layer 1"
     inkscape:groupmode="layer"
     id="layer1">
    <path
       d="m 2612.8325,-525.50723 q 1.7195,-8.38264 5.8034,-8.38264 h 0.2149 l 10.532,0.64482 h 0.4299 q 12.0366,-1.71952 13.7561,-1.93446 0,-3.86891 0,-5.15855 0,-20.20431 -0.8597,-33.10067 -0.4299,-5.58843 -2.5793,-10.10216 l -2.1494,-4.51373 q -0.8597,-1.71951 -0.8597,-3.65397 0,-3.22409 5.1585,-7.73782 7.9528,-7.30794 20.2043,-9.67227 2.7942,-5.80337 6.0183,-5.80337 1.2897,0 2.1494,1.0747 3.0092,3.22409 3.0092,8.38264 0,0.21494 -1.9345,33.96043 -2.5793,8.81252 -3.2241,10.3171 -0.8597,3.00915 -4.9436,6.23324 0,4.29879 1.2897,8.38264 h 4.9436 l -1.2897,10.96191 q 5.3735,0.42988 22.3537,5.15855 1.0747,0.21494 7.308,0.21494 3.8689,0 12.6814,-2.57928 l 14.186,-1.28963 q 10.9619,-4.29879 12.8964,-4.29879 2.7942,0 6.878,0.64482 -0.4298,6.0183 -1.2896,8.59758 -0.8598,3.22409 -13.5412,10.96191 -3.0091,1.71951 -4.2988,3.22409 -3.2241,3.86891 -3.439,3.86891 -1.0747,0.85976 -5.1586,0.85976 -3.2241,0 -4.7286,-0.85976 l -8.8125,-4.72867 -5.3735,-1.28963 -6.4482,-4.72867 -10.9619,8.38264 -9.4574,-1.28964 q -1.0747,0 -4.2988,2.14939 1.7196,10.3171 1.7196,17.4101 0,3.43903 -0.215,10.10215 -7.9527,1.28964 -7.9527,6.44819 0,1.93445 0.8597,4.72867 4.7287,0.42988 7.9528,1.28963 l -0.4299,26.86744 q -3.2241,-0.85976 -5.3735,-0.85976 -3.8689,0 -3.8689,3.22409 0,2.57927 1.9345,6.23324 3.0091,-1.93445 5.1585,-1.93445 3.2241,0 3.2241,4.08385 l -0.6448,8.59758 v 0.42988 q 0.4299,8.81251 0.6448,12.68142 0.4299,4.08385 2.5793,8.1677 l 2.5792,4.51373 q 0.4299,0.85976 0.4299,2.57928 0,1.93445 -0.4299,4.9436 6.6632,3.86891 14.8309,3.86891 6.878,0 13.7561,-3.43903 5.5884,-3.00915 6.0183,-3.43903 l 11.8217,-10.74697 q 8.8125,-7.30794 10.7469,-7.30794 1.9345,0 5.3735,1.93445 -0.6448,4.08385 -0.8597,5.58843 -1.5046,11.17685 -3.0092,13.1113 -1.5046,1.71952 -13.1113,5.37349 -8.8125,4.51373 -26.6525,10.53203 l -7.3079,2.36434 q -7.308,4.08385 -8.3827,4.08385 -1.9344,0 -4.2988,-3.86891 l -3.8689,-1.0747 -2.3643,5.37349 q -3.0091,0.42988 -5.1585,0.42988 -5.5885,0 -13.3263,-7.30795 -3.439,-3.43903 -5.5884,-7.093 -0.215,-0.21494 -1.7195,-5.58842 -2.3644,-7.09301 -2.3644,-8.1677 0,-1.93446 0.4299,-6.23325 0.4299,-3.43903 0.4299,-14.40094 0.2149,-7.093 3.8689,-10.74697 -1.2896,-4.08385 -1.2896,-9.88722 -1.0747,-9.88721 -1.2897,-37.6144 5.1586,-3.2241 5.1586,-6.23325 0,-1.71951 -0.4299,-4.08385 l -6.2332,-1.50457 -0.4299,-1.93446 v -0.21494 q 0,-1.0747 0.6448,-4.51373 1.2896,-5.58842 1.2896,-19.34455 -8.8125,-1.93445 -12.8963,-1.93445 -1.2897,0 -11.1769,1.28963 l -4.5137,0.42988 q -6.0183,1.93446 -6.4482,1.93446 -3.0092,0 -3.0092,-2.79422 0,-4.29879 9.0275,-9.24239 z"
       id="path11"
       style="font-size:440.196px;line-height:1.25;font-family:Papyrus;-inkscape-font-specification:Papyrus;letter-spacing:0px;word-spacing:0px;fill:#2d1802;stroke-width:11.0049" />
    <path
       id="path386"
       style="fill:#859b51;fill-opacity:1;stroke-width:0.803235"
       d="M 404.64066,206 A 198.64066,198.64066 0 0 1 206,404.64066 198.64066,198.64066 0 0 1 7.35934,206 198.64066,198.64066 0 0 1 206,7.35934 198.64066,198.64066 0 0 1 404.64066,206 Z" />
    <path
       id="path17403"
       style="fill:#abbd81;stroke-width:0.803235"
       d="m 206,7.3594 a 198.64066,198.64066 0 0 0 -1.24023,0.0879 c 0.23383,0.51351 0.5957,0.87114 0.5957,1.48437 0,2.6278 -1.96886,3.80537 -2.78906,1.66797 -0.38052,-0.99162 -0.25349,-2.10556 0.0254,-2.99609 a 198.64066,198.64066 0 0 0 -6.07813,0.43359 c 0.55689,0.50957 0.65586,1.0559 1.375,1.42773 3.7238,1.9257 4.27545,5.62944 1.24806,8.36914 -2.5301,2.2898 -2.46623,2.30396 -6.04883,-1.43554 -3.7029,-3.865 -4.56341,-3.96215 -5.82031,-0.65625 -0.8798,2.314 -1.43202,2.49484 -6.10742,1.99804 -6.90046,-0.73324 -10.24854,-4.52387 -7.97657,-7.36914 A 198.64066,198.64066 0 0 0 88.25588,46.64261 198.64066,198.64066 0 0 0 87.72463,47.03909 198.64066,198.64066 0 0 0 40.93165,95.8848 c 1.8863,0.72959 2.82916,2.81175 1.06446,4.13476 -0.865,0.6485 -1.92302,1.8993 -2.34962,2.7793 -2.85902,5.89691 -4.95714,8.07741 -7.58788,8.32422 a 198.64066,198.64066 0 0 0 -6.6875,12.25 c 0.12714,-0.0864 0.1175,-0.1059 0.25,-0.19532 3.09364,-2.08785 4.94016,-2.66224 5.34571,-2.02929 0.40555,0.63295 -0.6309,2.47459 -3.30665,5.21484 -2.11923,2.17026 -3.66242,3.37789 -4.85546,3.83789 a 198.64066,198.64066 0 0 0 -15.44533,75.79883 198.64066,198.64066 0 0 0 1.27929,17.89062 c 0.32218,0.22174 0.62664,0.40049 1.05469,0.98047 0.84051,1.1389 1.52735,2.9389 1.52735,4 0,1.64598 -0.9918,1.90002 -2.1211,1.45899 a 198.64066,198.64066 0 0 0 1.45508,9.33203 c 0.22202,-1.60457 0.75986,-2.29934 0.75977,-3.76172 -1.1e-4,-1.5942 0.45792,-3.1822 1.01952,-3.5293 1.3567,-0.8384 1.31809,-11.92928 -0.0449,-12.77148 -0.5867,-0.3626 -1.06836,-1.31128 -1.06836,-2.10938 0,-2.0825 10.41085,-1.61936 11.76563,0.52344 0.6207,0.9817 1.00942,1.09588 1.01952,0.30078 0.024,-1.8784 5.34507,-6.89643 6.78517,-6.39843 0.67669,0.2339 1.08474,1.81878 0.90625,3.52148 -1.34211,12.8006 -1.38855,15.36133 -0.27736,15.36133 0.6533,0 1.64359,-1.19932 2.20119,-2.66602 0.755,-1.9859 1.7921,-2.66601 4.0625,-2.66601 4.2192,0 4.74413,0.91573 2.30273,4.01953 -2.4187,3.0748 -2.66478,5.11157 -0.76368,6.32617 2.75321,1.7591 4.43366,6.57009 3.18555,9.12109 -0.64589,1.32 -1.44796,3.95854 -1.78125,5.86524 -0.3333,1.9067 -0.89947,5.02699 -1.25976,6.93359 -0.89601,4.7403 -6.62054,10.6798 -9.57813,9.9375 -3.20591,-0.8046 -3.90616,0.42241 -1.94727,3.41211 1.5464,2.3602 1.54681,3.03445 0,7.75195 -0.9296,2.8419 -1.69141,6.24185 -1.69141,7.55664 0,0.59805 -0.3715,1.69553 -0.56053,2.63868 a 198.64066,198.64066 0 0 0 2.02538,3.70703 c 0.19997,-1.12219 0.33735,-2.13153 0.7461,-3.60352 0.74974,-2.7 1.66526,-3.82904 2.39257,-3.5332 0.72731,0.29584 1.26758,2.01643 1.26758,5.02148 0,4.0734 -0.32519,4.75794 -2.40039,5.05274 -0.32175,0.0457 -0.26609,-0.22068 -0.53125,-0.23633 a 198.64066,198.64066 0 0 0 8.54687,15.6543 c 0.073,-0.0361 0.14789,-0.19646 0.22266,-0.20703 0.33953,-0.048 0.70647,0.16541 1.17187,0.63085 0.67731,0.67731 0.90787,1.75273 0.51367,2.39063 -0.0463,0.075 -0.12549,0.0554 -0.17578,0.12305 a 198.64066,198.64066 0 0 0 52.93165,54.35742 c 0.0121,-0.57644 0.4756,-1.05469 1.05469,-1.05469 0.5867,0 1.06641,0.48166 1.06641,1.06836 0,0.49528 -0.44072,0.78185 -0.9004,0.90039 a 198.64066,198.64066 0 0 0 24.03125,14.15039 c -0.38775,-1.73012 -0.81931,-3.61773 -1.00195,-7.05273 -0.2495,-4.6926 -0.80563,-12.37116 -1.23633,-17.06446 -0.9294,-10.128 -0.94258,-9.22769 0.41602,-31.40429 0.591,-9.6454 1.52748,-17.98832 2.08008,-18.54102 0.81935,-0.81935 1.90685,-0.79924 2.78906,-0.23828 0.88221,0.56096 1.55859,1.66145 1.55859,3.00195 0,1.3678 0.50444,2.99067 1.11914,3.60547 1.0822,1.0822 0.82668,2.12951 -2.29492,9.44141 -0.5009,1.1733 -0.66523,5.97467 -0.36523,10.66797 0.3,4.6934 0.78151,16.17708 1.07031,25.52148 0.2888,9.3445 1.02,17.58741 1.625,18.31641 0.77628,0.93538 1.06692,3.83737 1.00781,7.29687 a 198.64066,198.64066 0 0 0 13.00196,4.84961 c 0.062,-0.0458 0.12526,-0.0405 0.18554,-0.0879 1.11248,-0.8751 2.06611,-1.42668 2.86328,-1.65429 1.65996,-0.47398 2.20417,1.45106 2.54688,3.82812 a 198.64066,198.64066 0 0 0 21.41406,5.76562 c 0.48391,-0.0306 1.04783,-0.16688 1.26758,0.0527 0.0919,0.0919 -0.33133,0.0698 -0.36329,0.14453 a 198.64066,198.64066 0 0 0 25.85743,3.67383 c -2.7e-4,-3.61713 0.43984,-6.3746 1.16797,-5.86133 0.28786,0.20292 0.5924,0.83504 0.8789,1.97656 0.44612,1.7775 1.80962,3.39738 3.35352,3.98438 0.23319,0.0887 0.26312,0.22735 0.45703,0.32031 a 198.64066,198.64066 0 0 0 9.04883,0.64648 198.64066,198.64066 0 0 0 11.82812,-0.8457 c -0.0681,-0.065 -0.15156,-0.10669 -0.20507,-0.19336 -0.87992,-1.42696 0.29969,-3.20117 2.13086,-3.20117 2.4666,0 2.8576,1.95574 0.6289,3.14844 -0.0985,0.0527 -0.15227,0.0346 -0.24609,0.0801 a 198.64066,198.64066 0 0 0 12.18945,-0.8711 c 0.0131,-0.27575 -0.15372,-0.73108 -0.041,-0.84375 0.27925,-0.27925 1.46193,0.17799 2.52928,0.58594 a 198.64066,198.64066 0 0 0 70.84181,-25.16797 c 0.0257,-1.50884 0.52952,-2.36463 1.3828,-2.44141 0.37545,-0.0338 0.98027,0.64027 1.46095,0.88868 A 198.64066,198.64066 0 0 0 404.64062,206.00003 198.64066,198.64066 0 0 0 389.61523,131.3262 c -0.37751,-0.1647 -0.79492,-0.35657 -0.79492,-0.79297 0,-0.19968 0.2668,-0.20303 0.36328,-0.36328 A 198.64066,198.64066 0 0 0 276.61328,20.87112 c 1.03114,1.01752 2.34423,1.92774 3.07422,1.92774 2.0945,0 2.94257,2.94225 1.38867,4.81445 -1.5943,1.921 -2.36771,1.97984 -4.04101,0.30664 -0.704,-0.704 -1.28125,-1.90527 -1.28125,-2.66797 0,-0.7627 -1.14036,-1.38672 -2.53516,-1.38672 -2.8412,0 -5.47918,-2.51425 -4.42578,-4.21875 0.41801,-0.67636 1.49507,-0.70162 2.49805,-0.75976 A 198.64066,198.64066 0 0 0 206,7.3594 Z m 28.81445,395.14063 a 198.64066,198.64066 0 0 1 -2.48828,0.25781 198.64066,198.64066 0 0 0 2.48828,-0.25781 z M 124.32031,387.00198 a 198.64066,198.64066 0 0 1 -6.76758,-3.55078 198.64066,198.64066 0 0 0 6.76758,3.55078 z M 39.36915,314.02933 a 198.64066,198.64066 0 0 1 -1.73242,-2.9375 198.64066,198.64066 0 0 0 1.73242,2.9375 z m -13.77931,-25 a 198.64066,198.64066 0 0 1 -8.33592,-22.11524 198.64066,198.64066 0 0 0 8.33592,22.11524 z m -8.33592,-22.11524 c 0.2867,-0.51915 0.52117,-0.65854 0.77539,-1.22656 2.8065,-6.2706 4.81954,-18.88867 3.01367,-18.88867 -1.4031,0 -2.35548,2.64055 -2.35548,6.53125 0,1.7354 -0.9594,5.03604 -2.13281,7.33594 -0.39916,0.78243 -0.44901,1.54766 -0.74413,2.38086 a 198.64066,198.64066 0 0 0 1.44336,3.86718 z m -1.44336,-3.86718 a 198.64066,198.64066 0 0 1 -5.25587,-23.38477 198.64066,198.64066 0 0 0 5.25587,23.38477 z M 22.80469,130.2012 a 198.64066,198.64066 0 0 1 2.5664,-6.82812 198.64066,198.64066 0 0 0 -2.5664,6.82812 z M 40.93165,95.8848 A 198.64066,198.64066 0 0 0 32.06446,111.11526 198.64066,198.64066 0 0 1 40.93165,95.8848 Z M 187.36914,8.69144 a 198.64066,198.64066 0 0 0 -8.17187,0.58398 c 0.20289,0.21838 0.34902,0.2011 0.58789,0.49609 3.0851,3.80996 6.37654,2.11511 7.58398,-1.08007 z m -8.17773,0.58398 a 198.64066,198.64066 0 0 0 -5.98047,1.08789 198.64066,198.64066 0 0 1 5.98047,-1.08789 z m 40.43945,0.99414 c 0.46306,0.12111 0.65625,0.447 0.65625,1 0,3.5531 -4.59524,5.39095 -5.77734,2.31055 -0.8197,-2.1361 -0.79435,-2.16217 2.84765,-3.07617 1.07895,-0.27085 1.81038,-0.35549 2.27344,-0.23438 z m -72.96875,10.39649 c 3.3746,0 4.50852,1.6874 3.04492,4.5332 -0.5866,1.1404 -0.54623,2.64167 0.10547,3.85937 1.6191,3.0254 -0.46951,4.50315 -2.91211,2.06055 -0.704,-0.704 -1.2793,-1.98651 -1.2793,-2.84961 0,-0.8632 -0.76757,-2.41537 -1.70507,-3.45117 -2.2128,-2.4452 -1.08371,-4.15234 2.74609,-4.15234 z m 50.22266,5.33398 c 0.6213,0 0.8333,0.47981 0.4707,1.06641 -0.3625,0.5867 -0.87216,1.0664 -1.13086,1.0664 -0.2587,0 -0.4707,-0.4797 -0.4707,-1.0664 0,-0.5866 0.50956,-1.06641 1.13086,-1.06641 z m -4.60157,5.33203 c 1.0778,0 1.25172,0.9955 0.69922,4 -1.149,6.2489 -4.69531,7.81978 -4.69531,2.08008 0,-3.6895 1.57179,-6.08008 3.99609,-6.08008 z m -5.0625,10.13477 c 1.1589,0 1.69174,1.43859 1.93164,5.21679 0.2959,4.6601 -0.039,5.59653 -3.14257,8.79883 -3.4851,3.5956 -4.3424,4.07362 -5.4043,3.01172 -0.7837,-0.7838 1.53709,-7.29777 3.40039,-9.54297 0.8353,-1.0065 1.54001,-3.10115 1.56641,-4.65625 0.03,-1.7807 0.64073,-2.82812 1.64843,-2.82812 z m -14.38867,17.24609 c 1.56543,0.32238 2.65625,1.7524 2.65625,3.76563 0,2.2015 -3.16419,2.59752 -5.12109,0.64062 -1.8847,-1.8847 -1.55953,-3.73224 0.76367,-4.33984 0.60427,-0.15803 1.17936,-0.17387 1.70117,-0.0664 z m 147.68359,4.87305 c 0.37561,-0.0149 0.76785,0.0715 1.12305,0.29101 1.1929,0.7373 0.40992,2.65625 -1.08398,2.65625 -0.5174,0 -1.21719,-0.44804 -1.55469,-0.99414 -0.59168,-0.9573 0.3888,-1.90829 1.51562,-1.95312 z m 23.6836,2.94726 c 1.5537,0 1.99761,0.4873 1.53711,1.6875 -0.3561,0.928 -0.64844,1.88752 -0.64844,2.13282 0,0.919 -3.09932,0.4032 -3.73242,-0.6211 -1.0022,-1.6217 0.40045,-3.19922 2.84375,-3.19922 z M 85.52734,73.56448 c 0.34403,-0.0559 0.65263,-0.0434 0.90821,0.0547 2.6102,1.0016 1.80465,3.31652 -1.77735,5.10352 -4.0191,2.0049 -3.78804,1.98254 -4.74414,0.43554 -0.89399,-1.44655 3.20507,-5.20281 5.61328,-5.59375 z M 344.375,76.61917 c 0.32883,-0.0108 0.6928,0.13416 1.04688,0.48828 0.83499,0.8349 0.835,1.48336 0,2.31836 -0.835,0.8351 -1.36086,0.8351 -1.87696,0 -0.5548,-0.8977 -0.43855,-1.83087 -0.008,-2.36328 0.21537,-0.26621 0.50906,-0.43261 0.83789,-0.44336 z m -11.10938,3.91211 c 0.37068,0.0152 0.68999,0.11387 0.86719,0.29102 0.3545,0.3544 -0.27589,0.60684 -1.40039,0.56054 -1.2426,-0.051 -1.49543,-0.30403 -0.64453,-0.64453 0.385,-0.1541 0.80706,-0.22226 1.17773,-0.20703 z m -172.38085,0.17969 c 1.6057,0.5642 1.12816,5.57204 -0.96094,10.08984 -1.7213,3.7225 -1.84203,3.83776 -2.92383,2.75586 -2.2807,-2.2807 1.19967,-13.7893 3.88477,-12.8457 z m 26.63476,0.0937 c 0.11171,-0.11261 0.25969,0.0361 0.42969,0.46093 0.3081,0.7701 0.27021,1.69053 -0.084,2.04493 -0.3545,0.3545 -0.60489,-0.27599 -0.55859,-1.40039 0.0258,-0.61891 0.10119,-0.99287 0.21289,-1.10547 z m -16.54297,2.02148 c 0.68803,-0.10144 1.31055,0.45606 1.31055,1.75586 0,1.3102 -0.68834,2.22266 -1.67773,2.22266 -0.99341,0 -1.53614,-0.72495 -1.33204,-1.77735 0.2595,-1.33805 1.0112,-2.09973 1.69922,-2.20117 z M 300.28711,84.666 c 0.5866,0 1.06836,0.4797 1.06836,1.0664 0,0.5867 -0.48176,1.06641 -1.06836,1.06641 -0.58669,0 -1.06641,-0.47971 -1.06641,-1.06641 0,-0.5867 0.47971,-1.0664 1.06641,-1.0664 z m 39.30273,5.33593 c 1.5683,0 3.60748,3.01031 2.85938,4.22071 -0.8331,1.348 -1.68849,1.38107 -3.65039,0.13867 -1.5388,-0.9743 -0.92479,-4.35938 0.79101,-4.35938 z m -21.16796,1.06641 c 0.58669,0 1.06641,0.47971 1.06641,1.06641 0,0.5867 -0.4797,1.0664 -1.06641,1.0664 -0.58671,0 -1.06641,-0.4797 -1.06641,-1.0664 0,-0.5867 0.4797,-1.06641 1.06641,-1.06641 z m -111.98633,3.73437 c 1.0757,0 1.47006,0.85682 1.22656,2.66602 -0.4741,3.5227 -2.05249,5.1078 -2.89649,2.9082 -0.99949,-2.60439 -0.10977,-5.57422 1.66993,-5.57422 z m 30.91992,2.66407 c 0.5867,0 1.0664,0.4797 1.06641,1.0664 0,0.5867 -0.4797,1.06641 -1.06641,1.06641 -0.5866,0 -1.06836,-0.47971 -1.06836,-1.06641 0,-0.5867 0.48176,-1.0664 1.06836,-1.0664 z M 51.50195,98.06443 c 0.41139,0.10427 0.85071,0.43851 1.31836,1.00196 0.9353,1.127 1.04899,2.04661 0.33789,2.75781 -0.7112,0.711 -1.5355,0.5019 -2.4707,-0.625 -0.93529,-1.127 -1.04704,-2.04661 -0.33594,-2.75781 0.35555,-0.3555 0.73901,-0.48122 1.15039,-0.37696 z m 122.86524,0.14844 c 0.56409,-0.13046 1.37838,0.12107 2.26758,0.92578 1.1012,0.9966 1.74584,2.22823 1.43164,2.73633 -0.8392,1.358 -2.14567,1.13009 -3.60547,-0.62891 -1.022,-1.2314 -1.07129,-2.29411 -0.56836,-2.78125 0.12573,-0.12178 0.28658,-0.20846 0.47461,-0.25195 z m 165.34765,1.64063 c 0.37561,-0.0149 0.76785,0.0715 1.12305,0.29101 1.1929,0.7373 0.40992,2.6543 -1.08398,2.6543 -0.5174,0 -1.21719,-0.44599 -1.55469,-0.99219 -0.59168,-0.9573 0.3888,-1.9083 1.51562,-1.95312 z m -67.09765,0.8125 c 1.2979,0 1.30702,2.8868 0.0117,3.6875 -0.5461,0.3375 -1.29557,0.12559 -1.66407,-0.47071 -0.7867,-1.2729 0.21195,-3.21679 1.65235,-3.21679 z m 78.78125,0.13086 c 0.37067,0.0152 0.68994,0.11386 0.86718,0.29101 0.35441,0.3545 -0.27599,0.60685 -1.40039,0.56055 -1.2427,-0.051 -1.49543,-0.30413 -0.64453,-0.64453 0.385,-0.1541 0.80707,-0.22227 1.17774,-0.20703 z m -169.54883,3.32226 c 0.3756,-0.0149 0.76787,0.0715 1.12305,0.29102 1.193,0.7373 0.40981,2.65625 -1.08399,2.65625 -0.5174,0 -1.21709,-0.44804 -1.55469,-0.99414 -0.5916,-0.9573 0.38884,-1.90829 1.51563,-1.95313 z m -60.92578,1.05274 c 0.32503,0.0677 0.65307,0.21908 1.01172,0.44531 2.6678,1.6828 2.21694,4.06235 -0.84766,4.47265 -1.4667,0.1963 -3.12239,0.79699 -3.67969,1.33399 -1.458,1.4047 -2.7207,1.2018 -2.7207,-0.4375 0,-0.7777 1.22174,-2.56225 2.71484,-3.96485 1.07065,-1.0058 1.84492,-1.58251 2.53125,-1.79492 0.34317,-0.1062 0.6652,-0.12234 0.99024,-0.0547 z m -63.41211,2.04882 c 0.48428,0.0719 0.65536,0.58793 0.47851,1.5 -0.2026,1.0455 -1.01528,2.11806 -1.80468,2.38086 -0.918,0.3057 -1.30211,-0.20773 -1.06641,-1.42383 0.2027,-1.0455 1.01529,-2.116 1.80469,-2.3789 0.2295,-0.0764 0.42646,-0.10209 0.58789,-0.0781 z m 31.91406,5.76563 c 0.46634,0.0406 0.86866,0.20555 1.17774,0.51953 0.8278,0.8408 0.32599,1.77381 -1.78321,3.32031 -1.6133,1.1829 -2.93164,3.07091 -2.93164,4.19531 0,2.4524 -4.02349,2.85584 -4.92969,0.49414 -0.99637,-2.59642 3.53676,-7.21673 6.90821,-8.30468 0.5619,-0.18133 1.09225,-0.26518 1.55859,-0.22461 z M 64.96289,113.291 c 0.43208,0.0786 0.6582,0.28914 0.6582,0.63671 0,0.7382 -0.95951,2.20959 -2.13281,3.27149 -1.1734,1.0618 -2.13281,2.59094 -2.13281,3.39844 0,0.8075 -0.84059,1.764 -1.86719,2.125 -1.0267,0.3608 -3.14719,1.8385 -4.71289,3.2832 -1.5656,1.4448 -3.34011,2.32277 -3.94141,1.95117 -0.6012,-0.3716 -2.36452,1.49619 -3.91992,4.15039 -1.5555,2.6542 -3.50382,4.82617 -4.32812,4.82617 -0.8242,0 -1.49805,0.63637 -1.49805,1.41407 0,1.7164 -4.44237,6.05273 -6.20117,6.05273 -0.6955,0 -1.26563,-0.47971 -1.26563,-1.06641 0,-0.5867 -0.71961,-1.06836 -1.59961,-1.06836 -0.88,0 -1.59961,-0.52727 -1.59961,-1.17187 0,-1.6073 6.29113,-7.36133 8.04883,-7.36133 2.3046,0 2.97435,-2.16982 1.09375,-3.54492 -0.9555,-0.6987 -1.84275,-2.70729 -1.97265,-4.46289 -0.2173,-2.9364 0.062,-3.21375 3.49609,-3.46875 7.9996,-0.5939 10.99728,-1.41882 9.73828,-2.67774 -1.8123,-1.81238 -1.45052,-3.08829 0.76758,-2.71289 1.0844,0.1836 3.1242,-0.19414 4.5332,-0.83984 2.9309,-1.343 5.30429,-2.21539 6.94532,-2.57812 0.82051,-0.18137 1.45854,-0.23482 1.89062,-0.15625 z m 46.65625,1.24218 c 2.5503,0 2.57548,2.34997 0.0508,4.63477 -2.415,2.1855 -3.27566,2.21814 -4.06836,0.15234 -0.803,-2.0927 1.45838,-4.78711 4.01758,-4.78711 z m 236.75195,0.22657 c 0.50557,-0.057 1.03886,0.0191 1.50977,0.19531 0.94181,0.35235 1.63144,1.10276 1.33984,1.97851 -0.5937,1.7832 -3.61218,2.29063 -4.55468,0.76563 -0.4142,-0.6702 -0.25012,-1.72059 0.36328,-2.33399 0.35837,-0.35837 0.83622,-0.54848 1.34179,-0.60546 z m -83.32226,3.22656 c 0.3756,-0.0149 0.76787,0.0715 1.12305,0.29101 1.19299,0.7373 0.40981,2.65625 -1.08399,2.65625 -0.5174,0 -1.21709,-0.44794 -1.55469,-0.99414 -0.5916,-0.95722 0.38884,-1.90827 1.51563,-1.95312 z M 75.6582,124.13279 c 2.2801,0 3.15001,1.9817 1.65821,3.7793 -1.5218,1.8336 -2.77217,1.97975 -3.72657,0.43555 -1.0123,-1.638 0.25226,-4.21485 2.06836,-4.21485 z m 227.79102,4.52149 c 0.3756,-0.0151 0.76787,0.0695 1.12305,0.28906 1.193,0.7373 0.40981,2.65625 -1.08399,2.65625 -0.5174,0 -1.21709,-0.44609 -1.55469,-0.99219 -0.5916,-0.9573 0.38884,-1.90775 1.51563,-1.95312 z m 14.38672,1.29297 c 1.3142,0.29045 2.95344,3.77005 2.30078,5.4707 -0.6215,1.6197 -1.97482,1.96659 -3.13672,0.80469 -1.0694,-1.0694 -0.85572,-5.47466 0.30078,-6.18946 0.16688,-0.10312 0.34741,-0.12743 0.53516,-0.0859 z m -68.6836,1.24414 c 0.60187,0.29783 1.00196,1.17937 1.00196,2.54297 0,2.7273 -1.60449,3.52119 -3.20899,1.58789 -1.0464,-1.2608 -1.0464,-1.91694 0,-3.17774 0.80225,-0.96665 1.60517,-1.25096 2.20703,-0.95312 z m 18.15625,0.4082 c 1.6564,0 1.08367,2.93194 -0.70703,3.61914 -2.6286,1.0087 -3.64648,0.77521 -3.64648,-0.83789 0,-1.3977 2.16531,-2.78125 4.35351,-2.78125 z M 24.53907,134.8281 c 0.84433,0.0682 1.79358,0.46196 2.20702,1.13086 1.0983,1.7772 -1.02051,3.31933 -2.51171,1.82813 -0.704,-0.704 -1.27929,-1.66547 -1.27929,-2.13477 0,-0.6355 0.73964,-0.89241 1.58398,-0.82422 z m 76.71874,2.10547 c 2.2801,0 3.15001,1.9818 1.65821,3.7793 -1.5218,1.8336 -2.77217,1.97975 -3.72657,0.43555 -1.0123,-1.638 0.25226,-4.21485 2.06836,-4.21485 z m -26.03711,3.19922 c 0.5867,0 1.06641,0.47971 1.06641,1.06641 0,0.5866 -0.47971,1.0664 -1.06641,1.0664 -0.5867,1e-5 -1.0664,-0.4798 -1.0664,-1.0664 0,-0.5867 0.4797,-1.06641 1.0664,-1.06641 z m 160.76758,0 c 1.0524,0 1.40207,1.0384 1.16797,3.4668 -0.2564,2.6593 -0.89553,3.54669 -2.74023,3.80859 -1.4616,0.2075 -2.6626,-0.33094 -3.0625,-1.37304 -0.7479,-1.9491 2.35666,-5.90235 4.63476,-5.90235 z m -18.6875,0.14063 c 0.30789,-0.0297 0.67922,-0.01 1.1211,0.0527 1.569,0.223 2.39843,1.07389 2.39843,2.45899 0,2.1158 -2.63578,3.42271 -4.05078,2.00781 -0.4114,-0.4112 -0.74805,-1.6629 -0.74805,-2.7793 0,-1.1211 0.35563,-1.65126 1.2793,-1.74023 z m 90.98633,2.52539 c 3.1767,0 2.85984,4.16434 -0.35156,4.61914 -2.068,0.293 -2.42572,-0.0645 -2.13282,-2.13281 0.2347,-1.6569 1.06218,-2.48633 2.48438,-2.48633 z m -103.02149,0.66601 c 0.37068,0.0152 0.68999,0.11387 0.86719,0.29102 0.3545,0.3544 -0.27589,0.60489 -1.40039,0.55859 -1.2426,-0.051 -1.49543,-0.30208 -0.64453,-0.64257 0.385,-0.15405 0.80706,-0.22226 1.17773,-0.20704 z m -148.58593,5.54493 c 0.69271,-0.0422 1.29058,0.13707 1.7207,0.57812 1.1006,1.1285 0.70372,1.93505 -2.11328,4.31055 -1.9067,1.6078 -3.4668,3.46119 -3.4668,4.11718 0,2.04991 -1.82799,2.43551 -3.27538,0.69141 -1.1444,-1.379 -1.09787,-2.14288 0.26953,-4.39648 1.85152,-3.05153 4.78709,-5.17423 6.86523,-5.30078 z m 24.89843,7.29492 c 0.23645,-0.0438 0.51633,-0.0318 0.84376,0.0312 1.0267,0.1976 1.86523,1.06774 1.86523,1.93164 0,0.8639 -0.83853,1.73199 -1.86523,1.92969 -1.3097,0.2522 -1.86719,-0.32319 -1.86719,-1.92969 0,-1.20488 0.31411,-1.83162 1.02343,-1.96289 z m 145.19336,1.12109 c 0.50557,-0.057 1.03887,0.0191 1.50977,0.19531 0.94181,0.35234 1.63144,1.10272 1.33984,1.97852 -0.5937,1.7831 -3.61218,2.29062 -4.55468,0.76562 -0.4142,-0.6702 -0.25012,-1.72058 0.36328,-2.33398 0.35837,-0.35837 0.83622,-0.54848 1.34179,-0.60547 z m -162.18359,0.004 c 0.46878,-0.0957 0.97859,-0.07 1.47656,0.12109 0.9583,0.3677 1.39019,1.32489 1.02539,2.27539 -0.728,1.8972 -3.14666,2.17397 -4.19336,0.48047 -0.75277,-1.218 0.28507,-2.58997 1.69141,-2.87695 z m 184.56641,0.8125 c 0.67147,0.0646 1.16013,1.14458 0.77343,2.30469 -0.3613,1.08389 -0.61305,1.0831 -1.28515,0 v -0.004 c -0.4595,-0.7435 -0.54741,-1.64009 -0.19531,-1.99219 0.23867,-0.23867 0.4832,-0.33013 0.70703,-0.30859 z m 20.24023,2.1582 c 2.82,0 3.2574,0.35419 2.9668,2.40039 -0.2406,1.6937 -1.17278,2.49712 -3.17188,2.72852 -1.5579,0.1802 -3.1618,-0.20317 -3.5625,-0.85157 -1.3791,-2.2315 0.42248,-4.27734 3.76758,-4.27734 z m -61.04883,0.15039 c 0.51159,-0.12636 0.97527,0.20362 1.70118,0.91602 0.8967,0.88 1.28795,2.13671 0.86914,2.79101 -1.0792,1.6861 -5.2632,2.82306 -6,1.63086 -0.3396,-0.5494 0.3091,-2.12866 1.44141,-3.50976 0.91675,-1.11815 1.4767,-1.70177 1.98827,-1.82813 z m 31.07813,2.20899 c 0.42457,-0.0131 0.86761,0.15276 1.27148,0.55664 1.3653,1.3653 0.52077,4.55078 -1.20703,4.55078 -0.6235,0 -1.42259,-0.75248 -1.77539,-1.67188 -0.44455,-1.1584 -0.10232,-2.28172 0.55273,-2.91406 0.32753,-0.31617 0.73364,-0.50835 1.15821,-0.52148 z m 71.44336,0.97851 c 0.37029,0.0152 0.6882,0.11208 0.86523,0.28906 0.3545,0.3544 -0.27589,0.6049 -1.40039,0.5586 -1.23883,-0.0508 -1.48423,-0.30364 -0.64258,-0.64258 0.38478,-0.15358 0.80745,-0.22022 1.17774,-0.20508 z m -82.64258,2.41602 c 1.93022,0.39131 2.29119,3.43519 0.42578,7.52929 -1.00049,2.1958 -3.55963,3.67252 -4.24414,2.44922 -0.082,-0.1467 -0.25356,-2.08624 -0.38086,-4.31054 -0.1728,-3.0194 0.2762,-4.31504 1.77149,-5.11524 0.96811,-0.51812 1.78432,-0.68317 2.42773,-0.55273 z m -170.5293,0.0684 c 0.1824,-0.0415 0.35661,-0.0209 0.51367,0.0762 1.6331,1.0094 1.19841,5.83398 -0.52539,5.83398 -0.8454,0 -1.82654,-0.47042 -2.18164,-1.04492 -0.77481,-1.25379 0.91658,-4.57487 2.19336,-4.86523 z m 160.14063,2.82031 c 1.25056,-0.2722 2.39359,7e-5 2.96094,0.91797 0.77319,1.2512 -7.40524,9.63867 -9.39844,9.63867 -0.7822,0 -1.74171,-0.31974 -2.13282,-0.71094 -1.329,-1.3288 -0.71715,-3.61973 1.15626,-4.33203 1.02669,-0.3904 2.74124,-1.81482 3.81054,-3.16602 0.9956,-1.25808 2.35295,-2.07545 3.60352,-2.34765 z m -119.79102,1.11133 c 0.48427,0.0719 0.65529,0.58792 0.47852,1.5 -0.2027,1.0456 -1.01529,2.11806 -1.80469,2.38086 -0.918,0.3057 -1.30221,-0.20773 -1.06641,-1.42383 0.2027,-1.0456 1.01539,-2.11611 1.80469,-2.37891 0.2295,-0.0764 0.42647,-0.10209 0.58789,-0.0781 z m -49.4668,4.32031 c 1.77571,0.37398 2.16695,3.29497 0.3711,5.2793 -2.2081,2.4399 -3.45973,2.50767 -4.33203,0.23437 -0.8047,-2.0969 0.87568,-5.06591 3.11718,-5.50781 0.30783,-0.0607 0.59008,-0.0593 0.84375,-0.006 z m -11.40429,2.41016 c 0.32883,-0.0107 0.6928,0.13418 1.04687,0.48828 0.835,0.835 0.835,1.48531 0,2.32031 -0.835,0.8351 -1.3589,0.8351 -1.875,0 -0.5548,-0.8977 -0.4405,-1.83281 -0.01,-2.36524 0.21537,-0.26621 0.50906,-0.43261 0.83789,-0.44335 z m 301.46875,6.18164 c 0.36127,0.005 0.72426,0.10191 1.04687,0.26757 0.64524,0.33133 1.13086,0.94191 1.13086,1.66211 0,1.298 -2.8868,1.30712 -3.6875,0.0117 v -0.002 c -0.3375,-0.5461 -0.12549,-1.29371 0.47071,-1.66211 0.31822,-0.1967 0.67779,-0.28266 1.03906,-0.27734 z m -90.36133,0.1582 c 0.93179,0.22199 1.46667,1.21799 1.66993,2.9707 0.27639,2.3835 -0.32753,3.15436 -3.73243,4.75586 -2.23479,1.0512 -4.93861,3.00621 -6.0078,4.34571 -1.10441,1.38348 -3.11159,2.43554 -4.64649,2.43554 -1.486,0 -4.12799,1.20127 -5.87109,2.66797 -3.2721,2.7534 -5.64686,3.3665 -6.66406,1.7207 -0.7272,-1.1767 0.81873,-2.43822 6.49023,-5.29492 2.4378,-1.228 7.15663,-4.9144 10.48633,-8.1914 3.2529,-3.2013 5.60388,-4.97936 7.20898,-5.37305 0.40128,-0.0984 0.75581,-0.11111 1.06641,-0.0371 z m -211.2207,0.85742 c 0.25598,0.0306 0.51656,0.12549 0.78125,0.28906 1.4176,0.8761 1.44897,4.49453 0.0469,5.36133 -0.5867,0.3626 -1.06641,2.9354 -1.06641,5.7168 0,5.1276 -1.33177,7.61719 -4.07227,7.61719 -1.123,0 -1.31354,-0.7535 -0.74414,-2.9336 0.4214,-1.6133 1.00081,-5.43052 1.28711,-8.48242 0.38895,-4.14532 1.56192,-6.90264 3.01758,-7.4707 0.24261,-0.0947 0.49401,-0.12829 0.75,-0.0977 z m 11.81445,2.98425 c 1.96701,0 3.65753,3.77742 4.35743,9.73632 0.4572,3.8926 0.17412,5.30122 -1.33398,6.66602 -2.05682,1.8614 -3.97678,2.22836 -4.78908,0.91406 -0.2778,-0.4495 -0.0683,-3.16214 0.4668,-6.02734 0.6705,-3.5888 0.60652,-5.65227 -0.20898,-6.63477 -1.4395,-1.7345 -0.49379,-4.65429 1.50781,-4.65429 z m -21.51953,0.17968 c 0.51049,-0.055 1.0342,0.0477 1.49414,0.26953 0.91989,0.44374 1.58334,1.36655 1.37109,2.46876 -0.4728,2.45538 -3.89014,3.04756 -4.74414,0.82226 -0.3694,-0.9628 -0.16025,-2.26162 0.46485,-2.88672 0.4063,-0.4063 0.90357,-0.61886 1.41406,-0.67383 z m 230.23242,4.34375 c 0.42164,-0.0122 0.85284,0.13606 1.2207,0.50391 1.23081,1.2309 0.4601,3.50586 -1.1875,3.50586 -0.51739,0 -1.26215,-0.52236 -1.65625,-1.16016 -0.54965,-0.88935 -0.20757,-1.84236 0.45704,-2.39062 0.33229,-0.27413 0.74438,-0.44679 1.16601,-0.45899 z m -138.55078,4.23633 c 0.50606,-0.057 1.04081,0.0191 1.51172,0.19531 0.94181,0.35234 1.63144,1.10272 1.33984,1.97852 -0.5937,1.7831 -3.61219,2.29073 -4.55469,0.76562 -0.4143,-0.67008 -0.25217,-1.72058 0.36133,-2.33398 0.35838,-0.35837 0.83574,-0.54848 1.3418,-0.60547 z m -94.6875,0.0606 c 2.0985,0.6987 2.17139,4.27329 0.11719,5.77539 -2.1395,1.5644 -2.97479,1.72063 -3.95899,0.73633 -1.0605,-1.0604 2.4325,-6.98092 3.8418,-6.51172 z m 113.78711,5.29297 c 0.37469,-0.0104 0.76437,0.0882 1.13672,0.31836 0.7646,0.4726 0.72304,1.16846 -0.13086,2.19726 -1.6117,1.942 -3.1211,1.9253 -3.1211,-0.0332 0,-1.43385 0.99118,-2.4513 2.11524,-2.48242 z M 9.2832,202.53714 c 0.40716,-0.11114 0.97738,-0.0518 1.70508,0.20703 2.2792,0.8109 6.60545,5.90428 5.93555,6.98828 -1.1306,1.8293 -4.64197,0.58702 -6.76367,-2.39258 -1.85355,-2.60317 -2.09843,-4.4693 -0.87696,-4.80273 z m 14.81446,1.93555 c 0.6524,0.11811 1.36305,0.35384 1.97265,0.68164 3.064,1.6398 2.84849,5.78547 -0.41211,7.92187 -3.1585,2.0695 -3.22605,2.07663 -4.58203,0.39063 -1.4015,-1.7426 -0.38415,-8.2842 1.39453,-8.9668 0.3804,-0.14595 0.97455,-0.14546 1.62696,-0.0273 z m 242.07422,1.12109 c 1.4589,0.0944 3.18359,1.6983 3.18359,3.4707 0,1.9732 -2.60969,1.86662 -4.30469,-0.17578 -1.0044,-1.2102 -1.05078,-1.96094 -0.17578,-2.83594 0.35338,-0.35335 0.81057,-0.49045 1.29688,-0.45898 z m 7.80273,2.22461 c 0.32883,-0.0108 0.6928,0.13416 1.04687,0.48828 0.83501,0.8349 0.83501,1.48531 0,2.32031 -0.835,0.8351 -1.36085,0.8351 -1.87694,0 -0.5548,-0.8977 -0.43855,-1.83282 -0.008,-2.36523 0.21537,-0.26621 0.50906,-0.43261 0.83789,-0.44336 z m -52.61914,0.75976 c 0.5867,0.19551 1.06641,0.83518 1.06641,1.42188 0,0.5866 -0.4797,1.22627 -1.06641,1.42188 -0.5866,0.1956 -1.06836,-0.44408 -1.06836,-1.42188 0,-0.9778 0.48176,-1.61748 1.06836,-1.42188 z M 37.375,209.58201 c 1.05382,-0.28907 2.62096,0.76159 4.94336,3.08399 2.3476,2.3476 4.20475,3.19921 6.96875,3.19921 3.8448,0 8.81251,3.44232 8.84961,6.13282 0.011,0.7333 0.96058,1.33398 2.11328,1.33398 1.1527,0 2.6719,1.08039 3.375,2.40039 0.7031,1.32 1.96479,2.90589 2.80469,3.52539 1.9935,1.4705 1.29809,6.22335 -0.97461,6.65625 -0.9719,0.1851 -2.0544,-0.12716 -2.4043,-0.69336 -0.3499,-0.5662 -0.34267,-1.79161 0.0156,-2.72461 0.5155,-1.3432 -0.0953,-1.69726 -2.9336,-1.69726 -2.6118,0 -4.41709,-0.8799 -6.65039,-3.2461 -1.6856,-1.7859 -4.97379,-4.22306 -7.30859,-5.41406 l -4.2461,-2.16601 -2.49804,2.34765 c -2.9229,2.7458 -6.54432,2.14432 -5.19532,-0.86328 0.4583,-1.0218 1.0334,-4.13713 1.2793,-6.92383 0.2676,-3.0328 0.8075,-4.66209 1.86133,-4.95117 z m 175.33984,0.54492 c 0.17103,0.0378 0.31594,0.12722 0.43555,0.26758 0.47847,0.56145 0.5389,1.93432 0.1172,4.04297 -0.37801,1.8896 -1.67921,3.559 -3.4082,4.375 -3.88741,1.8346 -4.23903,1.73013 -6.07813,-1.82617 -2.9341,-5.674 -1.8067,-7.91737 2.5957,-5.16797 1.6877,1.0539 2.43403,0.94634 4.14453,-0.60156 0.93949,-0.85024 1.68029,-1.20324 2.19335,-1.08985 z m -72.86718,0.40625 c 1.4301,0 1.61352,0.70157 1.01562,3.88868 -0.793,4.227 -3.42907,8.91015 -5.01367,8.91015 -0.5655,0 -0.67627,-1.7204 -0.25977,-4 1.1463,-6.273 2.36892,-8.79883 4.25782,-8.79883 z m 61.30273,6.40039 c 0.5521,0 1.00392,0.47971 1.00392,1.06641 0,0.5866 -0.74752,1.06641 -1.66211,1.06641 -0.9146,0 -1.36651,-0.47981 -1.00391,-1.06641 0.3626,-0.5867 1.1101,-1.06641 1.6621,-1.06641 z m -134.49608,3.19922 c 1.3705,0 1.45902,3.91841 0.10742,4.75391 -0.5462,0.3374 -1.30951,0.10241 -1.69531,-0.52149 -0.8961,-1.4499 0.14819,-4.23242 1.58789,-4.23242 z m 57.54492,2.26367 c 0.37067,0.0152 0.68993,0.11387 0.86718,0.29102 0.3544,0.3545 -0.27598,0.60685 -1.40039,0.56055 -1.2427,-0.051 -1.49543,-0.30413 -0.64454,-0.64453 0.385,-0.1541 0.80707,-0.22227 1.17775,-0.20704 z M 23.25,222.78123 c -0.21433,0.0761 -0.4853,0.26821 -0.82813,0.55273 -0.87998,0.7303 -1.5996,2.44049 -1.5996,3.80079 0,1.3602 -0.48166,2.76835 -1.06836,3.13085 -0.5866,0.3626 -1.06641,3.08995 -1.06641,6.06055 0,4.6799 0.21321,5.22482 1.59961,4.07422 0.911,-0.7561 1.60156,-3.08304 1.60156,-5.40234 0,-2.2402 0.47981,-4.36983 1.06641,-4.73243 0.5867,-0.3625 1.0664,-2.36848 1.0664,-4.45898 0,-1.62885 -0.0566,-2.53144 -0.28515,-2.88476 -0.1143,-0.17667 -0.272,-0.21669 -0.48633,-0.14063 z m 117.92969,0.0215 c 0.20116,-0.008 0.43691,0.0401 0.70898,0.14454 0.88,0.3377 1.59961,1.2824 1.59961,2.09961 0,0.8172 -0.71961,1.48632 -1.59961,1.48632 -0.8804,0 -1.60156,-0.94421 -1.60156,-2.09961 0,-1.0713 0.2891,-1.60633 0.89258,-1.63086 z m 105.91601,0.5293 c 1.4667,0 2.03482,0.58957 1.79102,1.85547 -0.4093,2.1254 -3.5244,3.0841 -4.5625,1.4043 -1.0296,-1.666 0.32528,-3.25977 2.77148,-3.25977 z m 13.72461,1.60156 c 0.8639,0 1.73394,0.83854 1.93164,1.86524 0.2522,1.3096 -0.32504,1.86719 -1.93164,1.86719 -1.6066,0 -2.18189,-0.55759 -1.92969,-1.86719 0.19781,-1.0267 1.06579,-1.86524 1.92969,-1.86524 z m 8.88672,0.55079 c 1.25164,0.09 2.84766,1.3379 2.84766,2.61523 0,2.1292 -3.08044,2.12058 -3.89844,-0.0117 -0.3474,-0.9053 -0.35377,-1.92512 -0.0137,-2.26562 0.26907,-0.26908 0.64724,-0.36789 1.06445,-0.33789 z m -135.86133,0.35937 c 0.48256,-0.0289 0.92543,0.11591 1.27539,0.39258 0.69994,0.55334 1.02467,1.63208 0.54102,2.89258 -0.7903,2.0595 -4.97461,2.22857 -4.97461,0.20117 0,-0.8081 0.74158,-2.08299 1.64648,-2.83399 0.5069,-0.42067 1.02916,-0.6234 1.51172,-0.65234 z m -79.91797,9.36914 c 0.39071,0.0274 0.79619,0.26303 1.24024,0.70703 0.704,0.704 2.33254,1.2793 3.61914,1.2793 2.1251,0 3.63475,1.80751 3.63477,4.35351 -1e-5,1.2905 -2.11493,1.0772 -4.95313,-0.5 -4.3698,-2.4281 -5.87156,-4.12268 -4.69336,-5.30078 0.3857,-0.38575 0.76164,-0.56649 1.15234,-0.53906 z m 249.51563,3.22461 c 0.23626,-0.0438 0.51632,-0.0318 0.84375,0.0312 1.0266,0.1977 1.86719,1.06774 1.86719,1.93164 0,0.8639 -0.84059,1.73209 -1.86719,1.92969 -1.3097,0.2523 -1.86524,-0.32319 -1.86523,-1.92969 0,-1.20487 0.31271,-1.83161 1.02148,-1.96289 z M 27.1582,243.59961 c -0.6213,0 -0.8333,0.47981 -0.4707,1.06641 0.3626,0.5867 0.87216,1.0664 1.13086,1.0664 0.2587,0 0.46875,-0.4797 0.46875,-1.0664 0,-0.5866 -0.50771,-1.06641 -1.12891,-1.06641 z m -10.375,0.11914 c -1.15766,-0.0396 -3.42773,2.25682 -3.42773,3.74414 0,2.2084 1.89825,1.76819 3.24805,-0.75391 0.6549,-1.2237 0.92435,-2.49371 0.59765,-2.82031 -0.11012,-0.11014 -0.25259,-0.16426 -0.41797,-0.16992 z m 214.10157,0.94727 c 1.7743,0 1.33341,2.89614 -0.55079,3.61914 -2.3554,0.9039 -3.41988,0.81046 -4.14648,-0.36524 -0.6315,-1.0218 2.59077,-3.2539 4.69727,-3.2539 z M 57.37109,244.8125 c 0.97125,-0.0219 2.1523,0.62258 3.7168,1.92773 2.8819,2.4042 2.9065,2.64316 0.5625,5.38086 -2.3744,2.7732 -4.99194,2.83777 -4.27734,0.10547 0.3666,-1.402 -0.11999,-2.21269 -1.55469,-2.58789 -1.7525,-0.4582 -1.89945,-0.90396 -0.90625,-2.75976 0.7261,-1.3568 1.48773,-2.04452 2.45898,-2.06641 z m -25.20117,0.0566 c -0.91612,-0.079 -1.74805,0.33816 -1.74805,1.31836 0,0.9895 0.91051,1.67969 2.22071,1.67969 1.3035,0 2.03969,-0.55189 1.77929,-1.33399 -0.336,-1.00915 -1.33582,-1.58507 -2.25195,-1.66406 z m 217.89649,2.06445 c 0.3698,0.0152 0.6882,0.11208 0.86523,0.28907 0.3545,0.3544 -0.27394,0.60489 -1.39844,0.55859 -1.23883,-0.0508 -1.48423,-0.30364 -0.64258,-0.64258 0.38479,-0.15362 0.80598,-0.22023 1.17579,-0.20508 z m -27.6836,1.1875 c 0.37561,-0.0151 0.76785,0.0696 1.12305,0.28907 1.1929,0.7373 0.40991,2.65625 -1.08398,2.65625 -0.51742,0 -1.21718,-0.44609 -1.55469,-0.99219 -0.59168,-0.9573 0.3888,-1.90773 1.51562,-1.95313 z m -175.36328,0.85157 c 0.8805,0.0642 1.85764,0.62566 2.24414,1.63281 0.8816,2.2974 -1.0045,4.00526 -2.6289,2.38086 -0.704,-0.704 -1.2793,-1.90342 -1.2793,-2.66602 0,-0.979 0.78356,-1.41187 1.66406,-1.34765 z m -13.67773,2.19531 c -0.37832,0.005 -0.83123,0.097 -1.3418,0.29297 -0.9425,0.3617 -1.41598,1.13977 -1.05078,1.73047 0.8646,1.399 2.3643,1.3702 3.25,-0.0625 0.49085,-0.7942 0.45033,-1.40813 0.0332,-1.72461 -0.20856,-0.15825 -0.51231,-0.24107 -0.89063,-0.23633 z m 94.64453,3.09765 c 2.7372,0 2.96464,2.24911 0.49414,4.87891 -2.5245,2.6872 -3.37556,3.05032 -4.50586,1.91992 -1.0546,-1.0545 2.33502,-6.79882 4.01172,-6.79883 z m 166.49805,2.13477 c 0.8453,0 1.5371,0.95951 1.5371,2.13281 0,2.2083 -2.57437,2.94331 -3.73437,1.06641 -0.8929,-1.4447 0.31287,-3.19922 2.19727,-3.19922 z M 57.9375,257.38277 c 0.82784,0.11942 1.35935,1.3342 0.99805,3.56055 -0.3103,1.9125 0.0296,4.91387 0.75586,6.66797 1.0875,2.6265 1.04753,3.61139 -0.23047,5.58789 -1.8908,2.9242 -2.58746,2.9782 -4.94336,0.375 -1.9318,-2.1346 -1.69182,-7.02423 0.64648,-13.17383 0.82135,-2.16 1.9456,-3.13699 2.77344,-3.01758 z m 20.02734,0.56641 c 2.08771,0.17687 6.87413,3.14654 6.49805,4.3164 -0.6903,2.14741 -4.47595,1.54299 -6.31055,-1.00781 -1.0276,-1.4286 -1.43013,-2.86812 -0.89453,-3.19922 0.16515,-0.10207 0.4088,-0.13464 0.70703,-0.10937 z m -33.75781,2.93359 c 0.35715,-0.0268 0.72414,0.0548 1.06836,0.26758 0.6015,0.3718 0.60858,1.93625 0.0176,3.99805 -0.7428,2.5898 -0.58226,3.81639 0.68164,5.21289 1.9404,2.1442 0.4635,3.59311 -2.6543,2.60351 -1.4538,-0.4614 -2.88321,0.41348 -5.13281,3.14258 -1.7151,2.0808 -3.45067,3.45168 -3.85547,3.04688 -2.2203,-2.2203 3.20083,-14.22071 6.42383,-14.22071 0.7697,0 1.39844,-0.69161 1.39844,-1.53711 0,-1.38082 0.9813,-2.43313 2.05273,-2.51367 z m 6.41602,3.20899 c 0.42506,-0.0131 0.86956,0.15276 1.27343,0.55664 1.3653,1.3653 0.51882,4.55078 -1.20898,4.55078 -0.62349,0 -1.42259,-0.75238 -1.77539,-1.67188 -0.44455,-1.1584 -0.10232,-2.28172 0.55273,-2.91406 0.32753,-0.31617 0.73315,-0.50835 1.15821,-0.52148 z m 93.84179,0.97265 c 0.37068,0.0152 0.68999,0.11387 0.86719,0.29102 0.3545,0.3544 -0.27589,0.60685 -1.40039,0.56055 -1.2426,-0.051 -1.49543,-0.30404 -0.64453,-0.64454 0.385,-0.15405 0.80705,-0.22225 1.17773,-0.20703 z m 101.33399,2.13282 c 0.37067,0.0152 0.68994,0.11386 0.86719,0.29101 0.35441,0.3545 -0.27599,0.60685 -1.4004,0.56055 -1.2427,-0.051 -1.49543,-0.30413 -0.64453,-0.64453 0.385,-0.1541 0.80707,-0.22227 1.17774,-0.20703 z m 85.7207,0.27539 c 0.11171,-0.11261 0.25969,0.0361 0.42969,0.46093 0.3081,0.77 0.27021,1.69043 -0.084,2.04493 -0.3545,0.3544 -0.60488,-0.276 -0.55858,-1.4004 0.0258,-0.6189 0.10118,-0.99286 0.21289,-1.10546 z m -224.42383,0.98242 c 1.44936,-0.45234 2.53467,1.40846 1.61719,4.10351 -0.9451,2.7764 -1.16092,3.60213 -1.35742,5.17383 -0.1493,1.1944 -3.65486,1.45647 -4.75586,0.35547 -1.0543,-1.0542 -0.86368,-3.46849 0.39062,-4.93359 0.6067,-0.7085 1.77521,-2.24858 2.59571,-3.42188 0.50337,-0.71985 1.02664,-1.12656 1.50976,-1.27734 z m -31.875,0.74609 c 0.5867,0 1.06641,0.47981 1.06641,1.06641 0,0.5867 -0.47971,1.0664 -1.06641,1.0664 -0.5867,0 -1.0664,-0.4797 -1.0664,-1.0664 0,-0.5866 0.4797,-1.06641 1.0664,-1.06641 z m 50.19727,1.06445 c 3.2942,0 4.11662,1.79549 1.85742,4.05469 -1.8102,1.8102 -4.77397,1.58789 -5.54297,-0.41601 -0.9653,-2.5156 0.17125,-3.63868 3.68555,-3.63868 z m -28.90235,0.25391 c 0.37561,-0.0149 0.76785,0.0715 1.12305,0.29102 1.1929,0.7373 0.40992,2.65625 -1.08398,2.65625 -0.5174,0 -1.21719,-0.44804 -1.55469,-0.99414 -0.59168,-0.9573 0.3888,-1.90829 1.51562,-1.95313 z m 103.53711,2.43359 c 1.4355,0.88722 1.29676,4.09192 -0.24414,5.63282 -1.3798,1.3798 -5.38407,1.72931 -6.54297,0.57031 -1.5473,-1.5473 -0.55706,-3.58098 2.51954,-5.17187 1.7772,-0.91911 3.69817,-1.38326 4.26757,-1.03126 z m 98.10157,4.7793 c 0.5867,0 1.0664,0.47971 1.0664,1.06641 0,0.5866 -0.4797,1.06836 -1.0664,1.06836 -0.5866,0 -1.06641,-0.48176 -1.06641,-1.06836 0,-0.5867 0.47981,-1.06641 1.06641,-1.06641 z m -217.53711,1.06641 c 1.2979,0 1.30702,2.88865 0.0117,3.68945 -0.5461,0.3374 -1.29557,0.1255 -1.66407,-0.4707 -0.7867,-1.273 0.21195,-3.21875 1.65235,-3.21875 z m -7.66016,2.13476 c 2.681,0 4.64129,2.53845 4.21289,5.45703 -0.528,3.59821 -2.69113,3.59661 -4.55273,0 v -0.002 c -2.1753,-4.2066 -2.09786,-5.45508 0.33984,-5.45508 z m 25.81445,0.22657 c 0.50557,-0.057 1.03887,0.0191 1.50977,0.19531 0.94181,0.35235 1.63144,1.10276 1.33984,1.97851 -0.5937,1.7832 -3.61218,2.29063 -4.55468,0.76563 -0.4142,-0.6702 -0.25012,-1.72058 0.36328,-2.33399 0.35837,-0.35836 0.83622,-0.54848 1.34179,-0.60546 z m 154.95508,3.29882 c 2.1474,0.7576 1.12019,12.12855 -1.38281,15.31055 -1.2045,1.5313 -2.18944,3.58365 -2.18944,4.56055 0,2.1208 -2.01698,4.33594 -3.94727,4.33594 -0.7627,0 -1.38672,-0.73928 -1.38672,-1.64258 0,-0.9034 0.96147,-3.52432 2.13477,-5.82422 1.1734,-2.3 2.1328,-5.56657 2.1328,-7.25977 0,-3.8918 3.01497,-10.05347 4.63867,-9.48047 z m -149.6914,1.2754 c 2.2864,-10e-6 1.95734,3.09932 -0.37696,3.54882 -1.4255,0.2746 -1.86043,-0.16043 -1.58593,-1.58593 0.208,-1.0799 1.09099,-1.96289 1.96289,-1.96289 z m -65.76563,0.53124 c 1.5769,0 7.08594,10.19333 7.08594,13.11133 0,2.328 -1.65238,3.15477 -3.01758,1.50977 -0.6192,-0.746 -1.62242,-2.66166 -2.22852,-4.25586 -0.6061,-1.594 -1.80611,-2.89844 -2.66601,-2.89844 -0.8599,0 -1.83382,-0.43906 -2.16602,-0.97656 -0.952,-1.5405 1.32969,-6.49024 2.99219,-6.49024 z m 19.35156,0 c 0.88,0 1.59961,0.93774 1.59961,2.08204 0,1.1442 0.84049,2.56811 1.86719,3.16601 1.4447,0.8415 1.50598,1.08054 0.26758,1.05664 -0.88,-0.017 -2.4402,-0.88283 -3.4668,-1.92383 -2.2893,-2.3213 -2.41557,-4.38086 -0.26758,-4.38086 z m 64.97657,0.21485 c 2.479,0.2419 3.37416,0.9128 3.63086,2.7207 0.3049,2.1466 -0.1113,2.40039 -3.9375,2.40039 -2.3529,0 -4.58645,-0.50283 -4.96485,-1.11523 -1.241,-2.0079 1.83119,-4.34156 5.27149,-4.00586 z m 24.38672,1.25781 c 0.11219,-0.11216 0.26139,0.0374 0.43164,0.46289 0.3082,0.77 0.27031,1.69042 -0.084,2.04492 -0.3544,0.3544 -0.60685,-0.27609 -0.56055,-1.40039 0.0255,-0.62135 0.10071,-0.99526 0.2129,-1.10742 z m 125.86718,0 c 0.1122,-0.11216 0.26139,0.0374 0.43164,0.46289 0.3081,0.77 0.27022,1.69042 -0.084,2.04492 -0.3545,0.3544 -0.60694,-0.27609 -0.56055,-1.40039 0.0255,-0.62135 0.1007,-0.99526 0.21289,-1.10742 z m -179.11718,3.07813 c 0.31182,0.0995 0.65338,0.3233 1.01953,0.68945 0.9071,0.9071 0.89089,1.73137 -0.0664,3.26367 -1.0881,1.7424 -0.88463,2.36175 1.35938,4.12695 3.2665,2.5694 3.29047,3.45497 0.17187,6.38477 -2.771,2.6032 -4.99805,3.01784 -4.99805,0.93164 0,-0.7627 0.54439,-1.9312 1.209,-2.5957 0.68689,-0.6869 0.86394,-2.04449 0.41014,-3.14649 -1.75567,-4.26277 -1.44826,-8.82212 0.0508,-9.59961 0.24985,-0.12958 0.53193,-0.15423 0.84376,-0.0547 z m 223.9746,5.53515 c 0.32933,-0.0107 0.69281,0.13418 1.04688,0.48828 0.8351,0.835 0.8351,1.48542 0,2.32032 -0.835,0.8351 -1.36085,0.8351 -1.87695,0 -0.5548,-0.8977 -0.44051,-1.83284 -0.01,-2.36524 0.21537,-0.2662 0.51053,-0.43261 0.83983,-0.44336 z m -105.85351,0.79492 c 2.9285,-0.3416 5.87371,2.15296 4.72851,4.00586 -0.70219,1.1363 -2.78015,1.25939 -6.22265,0.36719 -2.8467,-0.7378 -1.73346,-3.99665 1.49414,-4.37305 z m -100.625,1.5293 c 0.40894,0.082 0.84392,0.34511 1.24805,0.83203 1.3666,1.6466 0.7465,3.82617 -1.0879,3.82617 -0.5704,0 -1.32493,-0.75237 -1.67773,-1.67187 -0.4737,-1.2344 -0.18584,-2.25916 0.42188,-2.73242 0.30385,-0.23663 0.68676,-0.33586 1.0957,-0.25391 z m 14.44922,0.63086 c 0.92977,0.0738 2.10929,0.674 3.37109,1.85938 1.6795,1.5778 3.23465,2.1426 4.65625,1.6914 1.1738,-0.3725 2.44627,-0.17535 2.82617,0.43946 0.3799,0.61459 -0.18024,1.3887 -1.24414,1.7207 -1.0638,0.332 -2.76831,1.04985 -3.78711,1.59375 -2.2305,1.1908 -5.8493,1.2951 -6.4707,0.1875 -0.2468,-0.44 -0.76735,-2.12966 -1.15625,-3.75586 -0.48205,-2.01595 -0.029,-3.27621 0.96484,-3.63672 0.24846,-0.0901 0.52992,-0.12421 0.83985,-0.0996 z m 17.80859,0.82617 c 0.5866,0 1.06641,0.47971 1.06641,1.06641 0,0.5866 -0.47981,1.0664 -1.06641,1.0664 -0.5867,10e-6 -1.0664,-0.4798 -1.0664,-1.0664 -10e-6,-0.5867 0.4797,-1.06641 1.0664,-1.06641 z m 21.51563,0 c 2.068,0 5.04774,3.29479 4.43165,4.90039 -0.70511,1.8373 -2.68399,1.93711 -4.4004,0.22071 -1.6412,-1.6412 -1.66224,-5.1211 -0.0312,-5.1211 z m 150.57031,2.61914 c 0.32883,-0.0107 0.6928,0.13418 1.04687,0.48828 0.835,0.835 0.835,1.48542 0,2.32032 -0.835,0.8351 -1.35889,0.8351 -1.875,0 -0.5548,-0.8977 -0.4405,-1.83284 -0.01,-2.36524 0.21537,-0.2662 0.50906,-0.43261 0.83789,-0.44336 z m -90.23242,2.81055 c 0.37832,-0.004 0.68206,0.08 0.89062,0.23828 0.41713,0.31651 0.45765,0.93041 -0.0332,1.72461 -0.8857,1.4331 -2.3854,1.4619 -3.25,0.0625 -0.3652,-0.5907 0.10828,-1.37072 1.05078,-1.73242 0.51058,-0.19593 0.96348,-0.28871 1.3418,-0.29297 z m -164.52149,0.9707 c 0.88,0 1.60157,0.45181 1.60157,1.00391 -1e-5,1.3451 -1.66538,2.30738 -2.51758,1.45508 v -0.004 c -1.2012,-1.1968 -0.73349,-2.45508 0.91601,-2.45508 z m 139.70703,0 c 2.4014,0 1.97874,3.30713 -0.50586,3.95703 -1.1733,0.3067 -2.1328,1.22171 -2.1328,2.03321 0,0.8117 -0.72156,1.47656 -1.60156,1.47656 -0.88,0 -1.59961,-0.47971 -1.59961,-1.06641 0,-0.5867 0.49265,-1.0664 1.09375,-1.0664 0.6012,0 1.54982,-1.20137 2.10742,-2.66797 0.5576,-1.4667 1.74417,-2.66602 2.63866,-2.66602 z m -61.84765,1.50977 c 2.05094,-0.026 4.13563,2.32175 3.38672,4.27344 -0.6483,1.6894 -4.00468,2.30205 -5.33398,0.97265 -1.3512,-1.3512 -0.70517,-4.39763 1.07813,-5.08203 0.28322,-0.10869 0.57614,-0.16035 0.86913,-0.16406 z m 8.63672,1.68945 c 0.2108,0 1.09204,1.36832 1.95703,3.04102 1.1842,2.2901 1.2683,3.34498 0.3457,4.26758 -1.65289,1.653 -3.47406,1.54306 -5.00585,-0.30274 -0.99611,-1.2001 -0.88322,-2.11778 0.52539,-4.26758 0.9867,-1.5059 1.96694,-2.73828 2.17773,-2.73828 z m -101.07032,1.28125 c 2.4314,0.4605 3.19715,8.32031 0.81055,8.32031 -0.8948,0 -2.15122,-0.97822 -2.79102,-2.17382 -1.5212,-2.8423 -0.31623,-6.58139 1.98047,-6.14649 z m 29.74025,1.01953 c 0.94956,0.0834 1.96662,0.8558 2.23437,2.2461 0.2465,1.28 -0.32897,1.85351 -1.85547,1.85351 -1.5265,0 -2.21093,-0.68444 -2.21093,-2.21093 0,-1.36682 0.88247,-1.97208 1.83203,-1.88868 z m -15.89063,4.10547 c 0.68518,0.0717 1.49352,0.59048 2.32618,1.59375 1.05938,1.2765 1.05938,1.92467 0,3.20117 -2.2204,2.6754 -4.26758,1.90849 -4.26758,-1.59961 0,-1.75405 0.51165,-2.82322 1.30078,-3.11914 0.19728,-0.074 0.41223,-0.10006 0.64062,-0.0762 z m 162.36524,0.18945 c 1.82474,0.35348 2.67993,3.04526 0.91601,4.16211 -2.6603,1.6845 -4.32049,1.09389 -3.96289,-1.41211 0.1875,-1.31399 1.18254,-2.54999 2.21094,-2.74609 0.29548,-0.0563 0.57526,-0.0544 0.83594,-0.004 z m -40.04493,5.38282 c 0.32377,-0.0475 0.64008,-0.0235 0.93554,0.0898 2.0357,0.7812 2.28893,4.02162 0.45703,5.85352 -1.65419,1.6542 -3.50386,1.62683 -4.91405,-0.0723 -1.38941,-1.67414 1.25504,-5.5386 3.52148,-5.87109 z m -104.70704,3.4414 c 0.32932,-0.0107 0.6928,0.13418 1.04688,0.48828 0.8351,0.835 0.8351,1.48346 0,2.31836 -0.835,0.8351 -1.36085,0.8351 -1.87695,0 -0.5548,-0.8977 -0.44051,-1.83088 -0.01,-2.36328 0.21537,-0.2662 0.51053,-0.43261 0.83984,-0.44336 z m 8.75586,4.19922 c 1.60627,0.0914 4.75586,2.57141 4.75586,4.01367 0,1.6227 -2.82842,0.94455 -4.70312,-1.12695 -1.2794,-1.4137 -1.47191,-2.25093 -0.63281,-2.76953 0.1528,-0.0944 0.35061,-0.13024 0.58007,-0.11719 z m 107.02539,3.84766 c 2.3249,0 8.68493,3.37053 8.11133,4.29883 -0.7202,1.1652 -7.24113,1.41902 -8.33594,0.32422 -1.04238,-1.0424 -0.86859,-4.62305 0.22461,-4.62305 z m 84.39845,0.5332 c 0.86389,0 1.73199,0.84049 1.92969,1.86719 0.2523,1.3096 -0.32319,1.86719 -1.92969,1.86719 -1.6066,0 -2.18385,-0.55759 -1.93164,-1.86719 0.1977,-1.0267 1.06763,-1.86719 1.93164,-1.86719 z m -70.06836,1.19727 c 0.19014,-0.0352 0.36978,-0.006 0.54102,0.0879 0.68496,0.37575 1.23397,1.7932 1.76562,4.3164 0.8167,3.8756 -0.69738,4.58634 -4.24218,1.99414 -1.9407,-1.41889 -1.94527,-1.5711 -0.10547,-4.3789 0.8067,-1.23113 1.47059,-1.91383 2.04101,-2.01953 z m 23.98828,1.88476 c 0.47388,-0.11648 0.93146,-0.0975 1.28516,0.1211 0.8325,0.5145 0.80862,1.14941 -0.084,2.22461 -1.4301,1.7234 -2.73478,1.92834 -3.58008,0.56054 -0.61493,-0.99495 0.95727,-2.55681 2.3789,-2.90625 z m 11.11329,1.74805 c 0.44421,-0.0889 0.83203,0.14688 0.83203,0.77148 0,0.44 -0.53922,0.97932 -1.19922,1.19922 -0.66,0.2201 -1.02078,-0.14068 -0.80078,-0.80078 0.2231,-0.66915 0.72373,-1.08106 1.16797,-1.16992 z m -53.20508,0.61328 c 0.38673,-0.123 0.71219,-0.0817 0.97461,0.12305 0.52483,0.40945 0.79687,1.47087 0.79687,3.17187 0,1.7185 -0.86693,2.84389 -2.73633,3.55469 -1.5049,0.5721 -3.06499,0.97629 -3.46679,0.89649 -0.4018,-0.08 -1.83906,-0.35849 -3.19336,-0.61719 -3.6166,-0.691 -2.57315,-3.95073 1.40625,-4.39453 1.755,-0.1957 3.94935,-1.03704 4.87695,-1.86914 0.50707,-0.4549 0.95507,-0.74223 1.3418,-0.86524 z m 27.37109,1.49024 c 0.5866,0 1.06641,0.4797 1.06641,1.0664 0,0.5867 -0.47981,1.06641 -1.06641,1.06641 -0.5867,0 -1.06641,-0.47971 -1.06641,-1.06641 0,-0.5867 0.47971,-1.0664 1.06641,-1.0664 z m -13.54101,2.30273 c 0.4846,0.003 0.97367,0.11223 1.38867,0.29297 0.82998,0.36147 1.36198,1.00886 0.95703,1.66406 -0.8337,1.349 -3.41246,1.39953 -4.22656,0.082 -0.3376,-0.5461 -0.10282,-1.30951 0.52148,-1.69531 0.39465,-0.2439 0.87477,-0.34685 1.35938,-0.34375 z m 109.50195,2.21875 c 0.3756,-0.0151 0.76787,0.0695 1.12305,0.28906 1.19298,0.7373 0.40981,2.65625 -1.08399,2.65625 -0.5174,0 -1.21709,-0.44598 -1.55469,-0.99219 -0.5916,-0.95721 0.38884,-1.90772 1.51563,-1.95312 z m -140.81641,0.49219 c 0.56464,-0.13048 1.38032,0.12103 2.26953,0.92578 1.1012,0.9966 1.74574,2.22813 1.43164,2.73633 -0.8392,1.3579 -2.14752,1.13009 -3.60742,-0.62891 -1.02195,-1.23145 -1.0713,-2.29411 -0.56836,-2.78125 0.12573,-0.12178 0.28639,-0.20846 0.47461,-0.25195 z m 53.48242,1.38672 c 2.4054,0 2.01477,3.344 -0.80273,6.875 -2.9944,3.753 -4.625,4.7342 -4.625,2.7832 0,-0.5547 -1.27479,-1.63509 -2.83399,-2.40039 -3.75239,-1.8419 -5.5154,-4.66819 -3.9121,-6.27149 0.8956,-0.8957 2.05689,-0.57314 4.52539,1.25196 l 3.32226,2.45508 1.64258,-2.34766 c 0.9039,-1.2906 2.11169,-2.3457 2.68359,-2.3457 z m -44.95703,0.22461 c 0.42458,-0.0136 0.86761,0.15276 1.27149,0.55664 1.3654,1.3653 0.51881,4.55273 -1.20899,4.55273 -0.6235,0 -1.42063,-0.75237 -1.77343,-1.67187 -0.44451,-1.1584 -0.10231,-2.28173 0.55273,-2.91407 0.32752,-0.31616 0.73363,-0.50981 1.1582,-0.52343 z m -75.57422,0.11914 c 1.45971,0.12602 3.00263,1.87717 2.39258,3.46679 -0.7803,2.0334 -3.46207,1.94047 -4.26367,-0.14843 -0.3529,-0.9195 -0.11822,-2.19624 0.52148,-2.83594 0.38503,-0.38503 0.86304,-0.52443 1.34961,-0.48242 z m 212.27344,1.38672 c 0.76104,-0.13041 1.69564,-0.13315 2.77539,0.0176 6.02239,0.8409 6.72266,1.19362 6.72266,3.38672 0,1.6825 -0.78183,1.98629 -4.89063,1.90039 -2.6896,-0.057 -5.38361,-0.69607 -5.98633,-1.42187 -1.62366,-1.95548 -0.90424,-3.49159 1.37891,-3.88281 z m -18.48438,1.21484 c 0.83411,0.11177 1.77734,0.3808 2.81054,0.8125 4.9623,2.0734 4.03961,3.70898 -2.09179,3.70898 -3.3125,0 -4.73632,-0.44125 -4.73632,-1.46875 0,-1.54105 0.67285,-2.53344 1.86328,-2.92383 0.59521,-0.19518 1.32019,-0.24067 2.15429,-0.1289 z m 32.54688,0.66016 c 0.11171,-0.11261 0.25968,0.0361 0.42969,0.46093 0.3081,0.77 0.27021,1.69042 -0.084,2.04492 -0.3545,0.3544 -0.60489,-0.27599 -0.55859,-1.40039 0.0258,-0.61891 0.10119,-0.99286 0.21289,-1.10546 z m -128.92773,0.66015 c 1.6471,0 5.96289,4.49023 5.96289,6.20313 0,0.6955 0.6917,1.26367 1.53711,1.26367 2.25059,0 3.10789,1.99445 1.625,3.78125 -1.71591,2.0675 -3.56817,1.95925 -5.41408,-0.31446 -5.6454,-6.95388 -6.99523,-10.93359 -3.71092,-10.93359 z m -31.5,1.4043 c 1.57307,0.35523 3.33007,1.75401 3.33007,2.99414 -10e-6,1.6321 -5.07708,1.00782 -5.73438,-0.70508 -0.3594,-0.9367 0.0536,-1.90225 0.96484,-2.25195 0.4118,-0.15803 0.91511,-0.15552 1.43947,-0.0371 z m -24.10742,0.0664 c 0.11219,-0.11214 0.26139,0.0375 0.43164,0.46289 0.3082,0.77012 0.27031,1.69053 -0.084,2.04493 -0.3544,0.3545 -0.60685,-0.27599 -0.56055,-1.40039 0.0255,-0.62135 0.1007,-0.99528 0.2129,-1.10743 z m 92.4414,0.66211 c 4.6539,0 6.25652,1.41295 4.29102,3.78125 -1.31011,1.5785 -6.48866,2.1384 -7.78517,0.8418 -0.3911,-0.391 -0.71094,-1.59041 -0.71094,-2.66601 0,-1.56551 0.83988,-1.95704 4.20509,-1.95704 z m -130.07031,2.66797 c 0.86399,0 1.73198,0.83854 1.92968,1.86524 0.25221,1.3096 -0.32308,1.86718 -1.92968,1.86718 -1.6065,0 -2.18395,-0.55758 -1.93165,-1.86718 0.1977,-1.0267 1.06774,-1.86524 1.93165,-1.86524 z m 56.49413,0.78711 c 0.3756,-0.0151 0.76787,0.0696 1.12305,0.28906 1.193,0.7373 0.40981,2.65625 -1.08398,2.65625 -0.5174,0 -1.21709,-0.44608 -1.5547,-0.99218 -0.59159,-0.9573 0.38884,-1.90773 1.51563,-1.95313 z m -37.29492,2.41211 c 0.864,0 1.73199,0.84049 1.92969,1.86719 0.25219,1.3096 -0.32309,1.86719 -1.92969,1.86719 -1.6065,0 -2.18199,-0.55759 -1.92969,-1.86719 0.1977,-1.0267 1.06579,-1.86719 1.92969,-1.86719 z m 37.33399,3.73438 c 0.58659,0 1.06641,0.4797 1.06641,1.0664 0,0.5867 -0.47982,1.06641 -1.06641,1.06641 -0.5867,0 -1.06836,-0.47971 -1.06836,-1.06641 0,-0.5867 0.48166,-1.0664 1.06836,-1.0664 z m 76.98242,11.88671 c 0.32777,0.0794 0.70789,0.30948 1.11524,0.7168 0.962,0.962 0.96472,1.55891 0.0156,2.50781 -0.94899,0.9489 -1.4117,0.81043 -1.9453,-0.58007 h 0.002 c -0.45185,-1.1775 -0.37761,-2.06577 0.0137,-2.45704 0.19564,-0.19562 0.47106,-0.2669 0.79882,-0.1875 z m -99.125,1.34571 c 0.27269,-0.0433 0.57173,0.0178 0.84961,0.1582 0.55578,0.28089 1.02539,0.88162 1.02539,1.60547 0,1.1467 -1.44478,1.33647 -2.45898,0.32227 -0.3751,-0.3752 -0.42337,-1.10475 -0.10547,-1.61915 0.17045,-0.2758 0.41677,-0.42348 0.68945,-0.46679 z m 107.19532,0.71094 c 0.30205,-0.0346 0.50978,0.37412 0.83203,1.20507 0.3872,0.9987 0.39182,2.3189 0.0117,2.9336 -0.8108,1.3119 -3.76368,1.51286 -3.76368,0.25586 0,-0.4744 0.68534,-1.7947 1.52344,-2.9336 0.69745,-0.9477 1.09444,-1.42637 1.39649,-1.46093 z m -90.48243,0.99025 c 2.8023,0 3.65074,1.60854 2.24024,4.24414 -1.3553,2.5323 -4.08319,2.83709 -4.95899,0.55469 -0.9436,-2.459 0.38285,-4.79883 2.71875,-4.79883 z m 112.25,0.0234 c 1.19033,-0.0251 1.97852,0.79731 1.97852,2.47656 0,2.5115 -2.92943,6.0332 -5.01953,6.0332 -0.6153,0 -1.72806,-0.73376 -2.47266,-1.63086 -1.1232,-1.3533 -0.9327,-2.08137 1.12109,-4.26757 1.60941,-1.7131 3.20226,-2.58627 4.39258,-2.61133 z m -62.9707,1.57617 c 2.3036,0 1.94268,6.28197 -0.38672,6.73047 -1.0287,0.1981 -2.18531,-0.45949 -2.57031,-1.46289 -0.8399,-2.1887 0.88883,-5.26758 2.95703,-5.26758 z m -50.69922,12.33398 c 0.92209,0.21273 2.00293,0.98639 2.64258,2.18164 1.6639,3.109 -0.23406,4.77357 -2.53906,2.22657 -0.9835,-1.0867 -1.78711,-2.53937 -1.78711,-3.22657 0,-1.04765 0.7615,-1.39436 1.68359,-1.18164 z m -5.95117,2.06645 c 1.1852,0 2.13281,0.71071 2.13281,1.59961 0,0.8888 -0.94762,1.59961 -2.13281,1.59961 -1.1852,0 -2.13281,-0.71081 -2.13281,-1.59961 0,-0.8889 0.94761,-1.59961 2.13281,-1.59961 z" />
    <path
       d="m 144.33876,173.11426 q 1.7195,-8.38264 5.8034,-8.38264 h 0.2149 l 10.532,0.64482 h 0.4299 q 12.0366,-1.71952 13.7561,-1.93446 0,-3.86891 0,-5.15855 0,-20.20431 -0.8597,-33.10067 -0.4299,-5.58843 -2.5793,-10.10216 l -2.1494,-4.51373 q -0.8597,-1.71951 -0.8597,-3.65397 0,-3.22409 5.1585,-7.73782 7.9528,-7.30794 20.2043,-9.67227 2.7942,-5.80337 6.0183,-5.80337 1.2897,0 2.1494,1.07471 3.0092,3.22408 3.0092,8.38263 0,0.21494 -1.9345,33.96043 -2.5793,8.81252 -3.2241,10.3171 -0.8597,3.00915 -4.9436,6.23324 0,4.29879 1.2897,8.38264 h 4.9436 l -1.2897,10.96191 q 5.3735,0.42988 22.3537,5.15855 1.0747,0.21494 7.308,0.21494 3.8689,0 12.6814,-2.57928 l 14.186,-1.28963 q 10.9619,-4.29879 12.8964,-4.29879 2.7942,0 6.878,0.64482 -0.4298,6.0183 -1.2896,8.59758 -0.8598,3.22409 -13.5412,10.96191 -3.0091,1.71951 -4.2988,3.22409 -3.2241,3.86891 -3.439,3.86891 -1.0747,0.85976 -5.1586,0.85976 -3.2241,0 -4.7286,-0.85976 l -8.8125,-4.72867 -5.3735,-1.28963 -6.4482,-4.72867 -10.9619,8.38264 -9.4574,-1.28964 q -1.0747,0 -4.2988,2.14939 1.7196,10.3171 1.7196,17.4101 0,3.43903 -0.215,10.10215 -7.9527,1.28964 -7.9527,6.44819 0,1.93445 0.8597,4.72867 4.7287,0.42988 7.9528,1.28963 l -0.4299,26.86744 q -3.2241,-0.85976 -5.3735,-0.85976 -3.8689,0 -3.8689,3.22409 0,2.57927 1.9345,6.23324 3.0091,-1.93445 5.1585,-1.93445 3.2241,0 3.2241,4.08385 l -0.6448,8.59758 v 0.42988 q 0.4299,8.81251 0.6448,12.68142 0.4299,4.08385 2.5793,8.1677 l 2.5792,4.51373 q 0.4299,0.85976 0.4299,2.57928 0,1.93445 -0.4299,4.9436 6.6632,3.86891 14.8309,3.86891 6.878,0 13.7561,-3.43903 5.5884,-3.00914 6.0183,-3.43903 l 11.8217,-10.74696 q 8.8125,-7.30794 10.7469,-7.30794 1.9345,0 5.3735,1.93445 -0.6448,4.08385 -0.8597,5.58843 -1.5046,11.17685 -3.0092,13.1113 -1.5046,1.71952 -13.1113,5.37349 -8.8125,4.51373 -26.6525,10.53203 l -7.3079,2.36434 q -7.308,4.08385 -8.3827,4.08385 -1.9344,0 -4.2988,-3.86891 l -3.8689,-1.0747 -2.3643,5.37349 q -3.0091,0.42988 -5.1585,0.42988 -5.5885,0 -13.3263,-7.30795 -3.439,-3.43903 -5.5884,-7.093 -0.215,-0.21494 -1.7195,-5.58842 -2.3644,-7.09301 -2.3644,-8.1677 0,-1.93446 0.4299,-6.23325 0.4299,-3.43903 0.4299,-14.40094 0.2149,-7.093 3.8689,-10.74697 -1.2896,-4.08385 -1.2896,-9.88722 -1.0747,-9.88721 -1.2897,-37.6144 5.1586,-3.2241 5.1586,-6.23325 0,-1.71951 -0.4299,-4.08385 l -6.2332,-1.50457 -0.4299,-1.93446 v -0.21494 q 0,-1.0747 0.6448,-4.51373 1.2896,-5.58842 1.2896,-19.34455 -8.8125,-1.93445 -12.8963,-1.93445 -1.2897,0 -11.1769,1.28963 l -4.5137,0.42988 q -6.0183,1.93446 -6.4482,1.93446 -3.0092,0 -3.0092,-2.79422 0,-4.29879 9.0275,-9.2424 z"
       id="path11-4"
       style="font-size:440.196px;line-height:1.25;font-family:Papyrus;-inkscape-font-specification:Papyrus;letter-spacing:0px;word-spacing:0px;fill:#2d1802;stroke:#2d1802;stroke-width:12;stroke-linecap:round;stroke-miterlimit:4;stroke-dasharray:none;stroke-opacity:0.391129" />
  </g>
  <metadata
     id="metadata19158">
    <rdf:RDF>
      <cc:Work
         rdf:about="">
        <dc:title>typist-app-logo</dc:title>
      </cc:Work>
    </rdf:RDF>
  </metadata>
</svg>
